<svg width="35" height="30" viewBox="0 0 35 30" fill="none" xmlns="http://www.w3.org/2000/svg">
<path d="M34.296 14.0712C34.8722 14.6607 34.8648 15.6045 34.2795 16.1849L21.614 28.7431C21.0242 29.3279 20.0716 29.3222 19.4889 28.7303L17.7744 26.9888C17.1915 26.3968 17.2009 25.4437 17.7953 24.8633L22.4387 20.3286C23.3969 19.3929 22.7417 17.7659 21.4024 17.7555L2.14154 17.6056C1.31314 17.5991 0.646816 16.9224 0.653267 16.094L0.672375 13.6386C0.678825 12.8102 1.35561 12.1439 2.18401 12.1503L21.4474 12.3003C22.7866 12.3108 23.4672 10.6942 22.5237 9.74366L17.9488 5.13475C17.3636 4.5451 17.369 3.59204 17.9611 3.00915L19.7025 1.2946C20.2944 0.711898 21.2471 0.72104 21.8276 1.31499L34.296 14.0712Z" fill="white"/>
</svg>
