<svg width="35" height="30" viewBox="0 0 35 30" fill="none" xmlns="http://www.w3.org/2000/svg">
<path d="M0.703928 14.0712C0.127792 14.6607 0.135185 15.6045 0.720481 16.1849L13.386 28.7431C13.9757 29.3279 14.9284 29.3222 15.511 28.7303L17.2256 26.9888C17.8085 26.3968 17.7991 25.4437 17.2047 24.8633L12.5612 20.3286C11.603 19.3929 12.2583 17.7659 13.5975 17.7555L32.8584 17.6056C33.6868 17.5991 34.3531 16.9224 34.3467 16.094L34.3276 13.6386C34.3211 12.8102 33.6443 12.1439 32.8159 12.1503L13.5526 12.3003C12.2133 12.3108 11.5328 10.6942 12.4763 9.74366L17.0511 5.13475C17.6364 4.5451 17.6309 3.59204 17.0389 3.00915L15.2974 1.2946C14.7056 0.711898 13.7529 0.72104 13.1724 1.31499L0.703928 14.0712Z" fill="white"/>
</svg>
