<svg width="100" height="100" viewBox="0 0 100 100" fill="none" xmlns="http://www.w3.org/2000/svg">
<path d="M93.75 68.75C93.75 76.7275 85.9375 84.375 78.125 84.375C74.2427 84.3779 70.497 82.9422 67.6113 80.345C64.7256 77.7479 62.9046 74.1737 62.5 70.3125H9.375C8.5462 70.3125 7.75134 69.9833 7.16529 69.3972C6.57924 68.8112 6.25 68.0163 6.25 67.1875V18.75C6.25 17.9212 6.57924 17.1263 7.16529 16.5403C7.75134 15.9542 8.5462 15.625 9.375 15.625H75C75.8288 15.625 76.6237 15.9542 77.2097 16.5403C77.7958 17.1263 78.125 17.9212 78.125 18.75V53.125C82.2345 53.2345 86.1454 54.9159 89.0523 57.8227C91.9591 60.7296 93.6405 64.6405 93.75 68.75Z" fill="#FAFAFA"/>
<path d="M68.75 28.125C68.75 29.3611 68.3834 30.5695 67.6967 31.5973C67.0099 32.6251 66.0338 33.4262 64.8918 33.8992C63.7497 34.3723 62.4931 34.4961 61.2807 34.2549C60.0683 34.0138 58.9547 33.4185 58.0806 32.5444C57.2065 31.6703 56.6113 30.5567 56.3701 29.3443C56.1289 28.1319 56.2527 26.8753 56.7258 25.7332C57.1988 24.5912 57.9999 23.6151 59.0277 22.9283C60.0555 22.2416 61.2639 21.875 62.5 21.875C64.1576 21.875 65.7473 22.5335 66.9194 23.7056C68.0915 24.8777 68.75 26.4674 68.75 28.125Z" fill="#E0E0E0"/>
<path d="M8.31075 67.7669L31.5736 39.0305C31.7217 38.8476 31.9092 38.7005 32.1221 38.6002C32.335 38.4999 32.5679 38.4489 32.8032 38.4512C33.0386 38.4535 33.2704 38.509 33.4813 38.6134C33.6923 38.7179 33.8769 38.8686 34.0214 39.0544L43.75 51.5626L53.5229 41.7896C53.6729 41.6397 53.8518 41.5219 54.0488 41.4434C54.2457 41.3648 54.4566 41.3272 54.6685 41.3328C54.8805 41.3383 55.0891 41.387 55.2817 41.4758C55.4742 41.5645 55.6467 41.6916 55.7886 41.8491L68.75 56.2501C68.75 56.2501 62.5 59.3751 62.5 70.3125H9.37497C9.08401 70.3039 8.80169 70.2116 8.5618 70.0467C8.32192 69.8819 8.13463 69.6513 8.02236 69.3828C7.91008 69.1142 7.87757 68.819 7.92872 68.5324C7.97986 68.2458 8.1125 67.9801 8.31075 67.7669Z" fill="#E0E0E0"/>
<path d="M86.9133 65.9675C87.0783 66.094 87.2164 66.2521 87.3195 66.4327C87.4227 66.6132 87.4887 66.8125 87.5138 67.0189C87.539 67.2253 87.5226 67.4346 87.4658 67.6346C87.409 67.8346 87.3128 68.0213 87.183 68.1836C87.0531 68.346 86.8921 68.4808 86.7095 68.5802C86.5269 68.6795 86.3262 68.7414 86.1194 68.7623C85.9125 68.7831 85.7035 68.7625 85.5048 68.7015C85.306 68.6406 85.1214 68.5406 84.9617 68.4073L79.6875 64.1886V76.5625C79.6875 76.9769 79.5229 77.3743 79.2299 77.6674C78.9368 77.9604 78.5394 78.125 78.125 78.125C77.7106 78.125 77.3132 77.9604 77.0201 77.6674C76.7271 77.3743 76.5625 76.9769 76.5625 76.5625V64.1886L71.2883 68.4073C71.1286 68.5406 70.944 68.6406 70.7452 68.7015C70.5465 68.7625 70.3375 68.7831 70.1306 68.7623C69.9238 68.7414 69.7231 68.6795 69.5405 68.5802C69.3579 68.4808 69.1969 68.346 69.067 68.1836C68.9372 68.0213 68.841 67.8346 68.7842 67.6346C68.7274 67.4346 68.711 67.2253 68.7362 67.0189C68.7613 66.8125 68.8273 66.6132 68.9305 66.4327C69.0336 66.2521 69.1717 66.094 69.3367 65.9675L77.1492 59.7175C77.4262 59.496 77.7703 59.3754 78.125 59.3754C78.4797 59.3754 78.8238 59.496 79.1008 59.7175L86.9133 65.9675ZM95.3125 68.75C95.314 73.0361 93.7134 77.168 90.825 80.3346C87.9365 83.5012 83.9688 85.4738 79.7006 85.8652C75.4324 86.2566 71.172 85.0386 67.7558 82.4502C64.3396 79.8617 62.0142 76.0899 61.2361 71.875H9.375C8.13222 71.8736 6.94073 71.3793 6.06194 70.5006C5.18316 69.6218 4.68886 68.4303 4.6875 67.1875V18.75C4.68886 17.5072 5.18316 16.3157 6.06194 15.4369C6.94073 14.5582 8.13222 14.0639 9.375 14.0625H75C76.2428 14.0639 77.4343 14.5582 78.3131 15.4369C79.1918 16.3157 79.6861 17.5072 79.6875 18.75V51.6417C83.9548 52.0353 87.9216 54.0072 90.8115 57.1715C93.7014 60.3358 95.3065 64.4646 95.3125 68.75ZM7.8125 18.75V66.25L30.3017 38.1378C30.6035 37.7605 30.9886 37.4584 31.4268 37.255C31.865 37.0517 32.3444 36.9527 32.8273 36.9658C33.3102 36.979 33.7835 37.1039 34.21 37.3308C34.6365 37.5577 35.0046 37.8805 35.2853 38.2736L43.7533 49.3498L52.3484 40.7547C52.6567 40.4404 53.0291 40.1964 53.4402 40.0391C53.8514 39.8819 54.2917 39.8153 54.7309 39.8438C55.1698 39.8682 55.5985 39.9848 55.9892 40.1861C56.3799 40.3874 56.7238 40.6687 56.9984 41.0119L69.0047 54.2077C71.2854 52.7664 73.8757 51.8869 76.5625 51.6417V18.75C76.562 18.3358 76.3972 17.9386 76.1043 17.6457C75.8114 17.3528 75.4142 17.188 75 17.1875H9.375C8.96076 17.188 8.56365 17.3528 8.27074 17.6457C7.97783 17.9386 7.81304 18.3358 7.8125 18.75ZM32.772 40.1306L9.81516 68.75H54.6511L32.772 40.1306ZM60.9375 68.75C60.9389 66.372 61.4355 64.0204 62.3956 61.8449C63.3558 59.6694 64.7585 57.7177 66.5144 56.1141L54.6219 43.0397L45.6728 51.8608L58.5848 68.75H60.9375ZM92.1875 68.75C92.1875 65.9687 91.3627 63.2499 89.8175 60.9373C88.2723 58.6247 86.0761 56.8223 83.5065 55.7579C80.9369 54.6936 78.1094 54.4151 75.3815 54.9577C72.6537 55.5003 70.148 56.8396 68.1813 58.8063C66.2146 60.773 64.8753 63.2787 64.3327 66.0065C63.7901 68.7344 64.0686 71.5619 65.1329 74.1315C66.1973 76.7011 67.9997 78.8973 70.3123 80.4425C72.6249 81.9878 75.3437 82.8125 78.125 82.8125C81.8533 82.8084 85.4278 81.3255 88.0641 78.6891C90.7005 76.0528 92.1834 72.4783 92.1875 68.75ZM54.6875 28.125C54.6875 26.5798 55.1457 25.0694 56.0041 23.7846C56.8626 22.4998 58.0827 21.4985 59.5103 20.9072C60.9378 20.3159 62.5087 20.1612 64.0241 20.4626C65.5396 20.7641 66.9317 21.5081 68.0243 22.6007C69.1169 23.6933 69.8609 25.0854 70.1624 26.6009C70.4638 28.1163 70.3091 29.6872 69.7178 31.1147C69.1265 32.5423 68.1252 33.7624 66.8404 34.6209C65.5556 35.4793 64.0452 35.9375 62.5 35.9375C60.4287 35.9351 58.443 35.1112 56.9784 33.6466C55.5138 32.182 54.6899 30.1963 54.6875 28.125ZM57.8125 28.125C57.8125 29.0521 58.0874 29.9584 58.6025 30.7292C59.1176 31.5001 59.8496 32.1009 60.7062 32.4557C61.5627 32.8105 62.5052 32.9033 63.4145 32.7224C64.3238 32.5416 65.159 32.0951 65.8146 31.4396C66.4701 30.784 66.9166 29.9488 67.0974 29.0395C67.2783 28.1302 67.1855 27.1877 66.8307 26.3312C66.4759 25.4746 65.8751 24.7426 65.1042 24.2275C64.3334 23.7124 63.4271 23.4375 62.5 23.4375C61.2572 23.4389 60.0657 23.9332 59.1869 24.8119C58.3082 25.6907 57.8139 26.8822 57.8125 28.125Z" fill="#9E9E9E"/>
</svg>
