<svg width="60" height="30" viewBox="0 0 60 30" fill="none" xmlns="http://www.w3.org/2000/svg">
<path d="M59.3126 12.8722C59.3118 12.8715 59.3113 12.8707 59.3104 12.87L47.0639 0.682492C46.1464 -0.230515 44.6625 -0.227118 43.7492 0.69046C42.8361 1.60792 42.8396 3.09186 43.7571 4.00499L51.9794 12.1875H2.34375C1.0493 12.1875 0 13.2368 0 14.5312C0 15.8257 1.0493 16.875 2.34375 16.875H51.9793L43.7572 25.0575C42.8397 25.9706 42.8362 27.4545 43.7494 28.372C44.6626 29.2897 46.1467 29.2929 47.064 28.38L59.3106 16.1925C59.3113 16.1918 59.3119 16.191 59.3127 16.1903C60.2306 15.2741 60.2277 13.7853 59.3126 12.8722Z" fill="#044C7B"/>
</svg>
